<svg width="99" height="19" viewBox="0 0 99 19" fill="none" xmlns="http://www.w3.org/2000/svg">
<path d="M0.774 7.718C0.774 6.494 1.05 5.396 1.602 4.424C2.154 3.44 2.904 2.672 3.852 2.12C4.812 1.568 5.874 1.292 7.038 1.292C8.406 1.292 9.6 1.622 10.62 2.282C11.64 2.942 12.384 3.878 12.852 5.09H10.89C10.542 4.334 10.038 3.752 9.378 3.344C8.73 2.936 7.95 2.732 7.038 2.732C6.162 2.732 5.376 2.936 4.68 3.344C3.984 3.752 3.438 4.334 3.042 5.09C2.646 5.834 2.448 6.71 2.448 7.718C2.448 8.714 2.646 9.59 3.042 10.346C3.438 11.09 3.984 11.666 4.68 12.074C5.376 12.482 6.162 12.686 7.038 12.686C7.95 12.686 8.73 12.488 9.378 12.092C10.038 11.684 10.542 11.102 10.89 10.346H12.852C12.384 11.546 11.64 12.476 10.62 13.136C9.6 13.784 8.406 14.108 7.038 14.108C5.874 14.108 4.812 13.838 3.852 13.298C2.904 12.746 2.154 11.984 1.602 11.012C1.05 10.04 0.774 8.942 0.774 7.718ZM14.6783 9.032C14.6783 8.024 14.8823 7.142 15.2903 6.386C15.6983 5.618 16.2563 5.024 16.9643 4.604C17.6843 4.184 18.4823 3.974 19.3583 3.974C20.2223 3.974 20.9723 4.16 21.6083 4.532C22.2443 4.904 22.7183 5.372 23.0303 5.936V4.136H24.6863V14H23.0303V12.164C22.7063 12.74 22.2203 13.22 21.5723 13.604C20.9363 13.976 20.1923 14.162 19.3403 14.162C18.4643 14.162 17.6723 13.946 16.9643 13.514C16.2563 13.082 15.6983 12.476 15.2903 11.696C14.8823 10.916 14.6783 10.028 14.6783 9.032ZM23.0303 9.05C23.0303 8.306 22.8803 7.658 22.5803 7.106C22.2803 6.554 21.8723 6.134 21.3563 5.846C20.8523 5.546 20.2943 5.396 19.6823 5.396C19.0703 5.396 18.5123 5.54 18.0083 5.828C17.5043 6.116 17.1023 6.536 16.8023 7.088C16.5023 7.64 16.3523 8.288 16.3523 9.032C16.3523 9.788 16.5023 10.448 16.8023 11.012C17.1023 11.564 17.5043 11.99 18.0083 12.29C18.5123 12.578 19.0703 12.722 19.6823 12.722C20.2943 12.722 20.8523 12.578 21.3563 12.29C21.8723 11.99 22.2803 11.564 22.5803 11.012C22.8803 10.448 23.0303 9.794 23.0303 9.05ZM29.4524 5.486V11.3C29.4524 11.78 29.5544 12.122 29.7584 12.326C29.9624 12.518 30.3164 12.614 30.8204 12.614H32.0264V14H30.5504C29.6384 14 28.9544 13.79 28.4984 13.37C28.0424 12.95 27.8144 12.26 27.8144 11.3V5.486H26.5364V4.136H27.8144V1.652H29.4524V4.136H32.0264V5.486H29.4524ZM43.011 8.69C43.011 9.002 42.993 9.332 42.957 9.68H35.073C35.133 10.652 35.463 11.414 36.063 11.966C36.675 12.506 37.413 12.776 38.277 12.776C38.985 12.776 39.573 12.614 40.041 12.29C40.521 11.954 40.857 11.51 41.049 10.958H42.813C42.549 11.906 42.021 12.68 41.229 13.28C40.437 13.868 39.453 14.162 38.277 14.162C37.341 14.162 36.501 13.952 35.757 13.532C35.025 13.112 34.449 12.518 34.029 11.75C33.609 10.97 33.399 10.07 33.399 9.05C33.399 8.03 33.603 7.136 34.011 6.368C34.419 5.6 34.989 5.012 35.721 4.604C36.465 4.184 37.317 3.974 38.277 3.974C39.213 3.974 40.041 4.178 40.761 4.586C41.481 4.994 42.033 5.558 42.417 6.278C42.813 6.986 43.011 7.79 43.011 8.69ZM41.319 8.348C41.319 7.724 41.181 7.19 40.905 6.746C40.629 6.29 40.251 5.948 39.771 5.72C39.303 5.48 38.781 5.36 38.205 5.36C37.377 5.36 36.669 5.624 36.081 6.152C35.505 6.68 35.175 7.412 35.091 8.348H41.319ZM49.2411 3.974C50.0931 3.974 50.8371 4.16 51.4731 4.532C52.1211 4.904 52.6011 5.372 52.9131 5.936V4.136H54.5691V14.216C54.5691 15.116 54.3771 15.914 53.9931 16.61C53.6091 17.318 53.0571 17.87 52.3371 18.266C51.6291 18.662 50.8011 18.86 49.8531 18.86C48.5571 18.86 47.4771 18.554 46.6131 17.942C45.7491 17.33 45.2391 16.496 45.0831 15.44H46.7031C46.8831 16.04 47.2551 16.52 47.8191 16.88C48.3831 17.252 49.0611 17.438 49.8531 17.438C50.7531 17.438 51.4851 17.156 52.0491 16.592C52.6251 16.028 52.9131 15.236 52.9131 14.216V12.146C52.5891 12.722 52.1091 13.202 51.4731 13.586C50.8371 13.97 50.0931 14.162 49.2411 14.162C48.3651 14.162 47.5671 13.946 46.8471 13.514C46.1391 13.082 45.5811 12.476 45.1731 11.696C44.7651 10.916 44.5611 10.028 44.5611 9.032C44.5611 8.024 44.7651 7.142 45.1731 6.386C45.5811 5.618 46.1391 5.024 46.8471 4.604C47.5671 4.184 48.3651 3.974 49.2411 3.974ZM52.9131 9.05C52.9131 8.306 52.7631 7.658 52.4631 7.106C52.1631 6.554 51.7551 6.134 51.2391 5.846C50.7351 5.546 50.1771 5.396 49.5651 5.396C48.9531 5.396 48.3951 5.54 47.8911 5.828C47.3871 6.116 46.9851 6.536 46.6851 7.088C46.3851 7.64 46.2351 8.288 46.2351 9.032C46.2351 9.788 46.3851 10.448 46.6851 11.012C46.9851 11.564 47.3871 11.99 47.8911 12.29C48.3951 12.578 48.9531 12.722 49.5651 12.722C50.1771 12.722 50.7351 12.578 51.2391 12.29C51.7551 11.99 52.1631 11.564 52.4631 11.012C52.7631 10.448 52.9131 9.794 52.9131 9.05ZM61.6392 14.162C60.7152 14.162 59.8752 13.952 59.1192 13.532C58.3752 13.112 57.7872 12.518 57.3552 11.75C56.9352 10.97 56.7252 10.07 56.7252 9.05C56.7252 8.042 56.9412 7.154 57.3732 6.386C57.8172 5.606 58.4172 5.012 59.1732 4.604C59.9292 4.184 60.7752 3.974 61.7112 3.974C62.6472 3.974 63.4932 4.184 64.2492 4.604C65.0052 5.012 65.5992 5.6 66.0312 6.368C66.4752 7.136 66.6972 8.03 66.6972 9.05C66.6972 10.07 66.4692 10.97 66.0132 11.75C65.5692 12.518 64.9632 13.112 64.1952 13.532C63.4272 13.952 62.5752 14.162 61.6392 14.162ZM61.6392 12.722C62.2272 12.722 62.7792 12.584 63.2952 12.308C63.8112 12.032 64.2252 11.618 64.5372 11.066C64.8612 10.514 65.0232 9.842 65.0232 9.05C65.0232 8.258 64.8672 7.586 64.5552 7.034C64.2432 6.482 63.8352 6.074 63.3312 5.81C62.8272 5.534 62.2812 5.396 61.6932 5.396C61.0932 5.396 60.5412 5.534 60.0372 5.81C59.5452 6.074 59.1492 6.482 58.8492 7.034C58.5492 7.586 58.3992 8.258 58.3992 9.05C58.3992 9.854 58.5432 10.532 58.8312 11.084C59.1312 11.636 59.5272 12.05 60.0192 12.326C60.5112 12.59 61.0512 12.722 61.6392 12.722ZM70.4888 5.738C70.7768 5.174 71.1848 4.736 71.7128 4.424C72.2528 4.112 72.9068 3.956 73.6748 3.956V5.648H73.2428C71.4068 5.648 70.4888 6.644 70.4888 8.636V14H68.8508V4.136H70.4888V5.738ZM76.4117 2.534C76.0997 2.534 75.8357 2.426 75.6197 2.21C75.4037 1.994 75.2957 1.73 75.2957 1.418C75.2957 1.106 75.4037 0.842 75.6197 0.625999C75.8357 0.409999 76.0997 0.301999 76.4117 0.301999C76.7117 0.301999 76.9637 0.409999 77.1677 0.625999C77.3837 0.842 77.4917 1.106 77.4917 1.418C77.4917 1.73 77.3837 1.994 77.1677 2.21C76.9637 2.426 76.7117 2.534 76.4117 2.534ZM77.2037 4.136V14H75.5657V4.136H77.2037ZM88.9954 8.69C88.9954 9.002 88.9774 9.332 88.9414 9.68H81.0574C81.1174 10.652 81.4474 11.414 82.0474 11.966C82.6594 12.506 83.3974 12.776 84.2614 12.776C84.9694 12.776 85.5574 12.614 86.0254 12.29C86.5054 11.954 86.8414 11.51 87.0334 10.958H88.7974C88.5334 11.906 88.0054 12.68 87.2134 13.28C86.4214 13.868 85.4374 14.162 84.2614 14.162C83.3254 14.162 82.4854 13.952 81.7414 13.532C81.0094 13.112 80.4334 12.518 80.0134 11.75C79.5934 10.97 79.3834 10.07 79.3834 9.05C79.3834 8.03 79.5874 7.136 79.9954 6.368C80.4034 5.6 80.9734 5.012 81.7054 4.604C82.4494 4.184 83.3014 3.974 84.2614 3.974C85.1974 3.974 86.0254 4.178 86.7454 4.586C87.4654 4.994 88.0174 5.558 88.4014 6.278C88.7974 6.986 88.9954 7.79 88.9954 8.69ZM87.3034 8.348C87.3034 7.724 87.1654 7.19 86.8894 6.746C86.6134 6.29 86.2354 5.948 85.7554 5.72C85.2874 5.48 84.7654 5.36 84.1894 5.36C83.3614 5.36 82.6534 5.624 82.0654 6.152C81.4894 6.68 81.1594 7.412 81.0754 8.348H87.3034ZM94.6495 14.162C93.8935 14.162 93.2155 14.036 92.6155 13.784C92.0155 13.52 91.5415 13.16 91.1935 12.704C90.8455 12.236 90.6535 11.702 90.6175 11.102H92.3095C92.3575 11.594 92.5855 11.996 92.9935 12.308C93.4135 12.62 93.9595 12.776 94.6315 12.776C95.2555 12.776 95.7475 12.638 96.1075 12.362C96.4675 12.086 96.6475 11.738 96.6475 11.318C96.6475 10.886 96.4555 10.568 96.0715 10.364C95.6875 10.148 95.0935 9.938 94.2895 9.734C93.5575 9.542 92.9575 9.35 92.4895 9.158C92.0335 8.954 91.6375 8.66 91.3015 8.276C90.9775 7.88 90.8155 7.364 90.8155 6.728C90.8155 6.224 90.9655 5.762 91.2655 5.342C91.5655 4.922 91.9915 4.592 92.5435 4.352C93.0955 4.1 93.7255 3.974 94.4335 3.974C95.5255 3.974 96.4075 4.25 97.0795 4.802C97.7515 5.354 98.1115 6.11 98.1595 7.07H96.5215C96.4855 6.554 96.2755 6.14 95.8915 5.828C95.5195 5.516 95.0155 5.36 94.3795 5.36C93.7915 5.36 93.3235 5.486 92.9755 5.738C92.6275 5.99 92.4535 6.32 92.4535 6.728C92.4535 7.052 92.5555 7.322 92.7595 7.538C92.9755 7.742 93.2395 7.91 93.5515 8.042C93.8755 8.162 94.3195 8.3 94.8835 8.456C95.5915 8.648 96.1675 8.84 96.6115 9.032C97.0555 9.212 97.4335 9.488 97.7455 9.86C98.0695 10.232 98.2375 10.718 98.2495 11.318C98.2495 11.858 98.0995 12.344 97.7995 12.776C97.4995 13.208 97.0735 13.55 96.5215 13.802C95.9815 14.042 95.3575 14.162 94.6495 14.162Z" fill="black"/>
</svg>
