<svg width="33" height="33" viewBox="0 0 33 33" fill="none" xmlns="http://www.w3.org/2000/svg">
<path d="M9.625 22.3163V8.701L7.52125 5.9015C7.24717 5.53117 7.21142 5.1425 7.414 4.7355C7.61658 4.3285 7.94796 4.125 8.40812 4.125H22.2984C22.7439 4.125 23.1229 4.28129 23.4355 4.59388C23.7472 4.90646 23.903 5.28504 23.903 5.72962V8.25H26.653C27.2644 8.25 27.7874 8.46771 28.2219 8.90313C28.6573 9.33763 28.875 9.86013 28.875 10.4706V17.3456C28.875 17.957 28.6573 18.48 28.2219 18.9145C27.7874 19.3499 27.2649 19.5676 26.6544 19.5676H23.9044V22.3176C23.9044 22.9281 23.6867 23.4506 23.2512 23.8851C22.8167 24.3205 22.2942 24.5383 21.6838 24.5383H11.8442C11.2337 24.5383 10.7112 24.321 10.2767 23.8865C9.84225 23.4511 9.625 22.9277 9.625 22.3163ZM11.8456 23.1633H21.6824C21.9299 23.1633 22.1329 23.084 22.2915 22.9254C22.4501 22.7668 22.5294 22.5642 22.5294 22.3176V5.5H8.91L11 8.21288V22.3176C11 22.5642 11.0793 22.7668 11.2379 22.9254C11.3965 23.084 11.599 23.1633 11.8456 23.1633ZM23.9044 18.1926H26.6544C26.901 18.1926 27.1035 18.1133 27.2621 17.9548C27.4207 17.7962 27.5 17.5931 27.5 17.3456V10.4706C27.5 10.224 27.4207 10.0215 27.2621 9.86288C27.1035 9.70429 26.901 9.625 26.6544 9.625H23.9044V18.1913V18.1926ZM18.8265 7.93238C18.4745 7.93238 18.1747 8.05613 17.9272 8.30363C17.6807 8.55021 17.5574 8.8495 17.5574 9.2015V19.4618C17.5574 19.8138 17.6811 20.1135 17.9286 20.361C18.1752 20.6076 18.4745 20.7309 18.8265 20.7309C19.1794 20.7309 19.4792 20.6071 19.7257 20.3596C19.9723 20.1121 20.0961 19.8128 20.097 19.4618V9.2015C20.097 8.8495 19.9732 8.54975 19.7257 8.30225C19.4782 8.05567 19.1785 7.93238 18.8265 7.93238ZM6.1875 28.875C5.99225 28.875 5.82908 28.809 5.698 28.677C5.566 28.545 5.5 28.3818 5.5 28.1875C5.5 27.9932 5.566 27.83 5.698 27.698C5.83 27.566 5.99317 27.5 6.1875 27.5H26.8125C27.0077 27.5 27.1709 27.566 27.302 27.698C27.4331 27.83 27.4991 27.9932 27.5 28.1875C27.5 28.3818 27.434 28.545 27.302 28.677C27.1709 28.8081 27.0077 28.8736 26.8125 28.8736L6.1875 28.875Z" fill="black"/>
</svg>
