<svg width="34" height="33" viewBox="0 0 34 33" fill="none" xmlns="http://www.w3.org/2000/svg">
<g clip-path="url(#clip0_145_24)">
<g clip-path="url(#clip1_145_24)">
<path d="M1.59375 33H16.4688C16.6096 33 16.7448 32.9457 16.8444 32.849C16.944 32.7523 17 32.6211 17 32.4844C17 32.3476 16.944 32.2165 16.8444 32.1198C16.7448 32.0231 16.6096 31.9688 16.4688 31.9688H1.59375C1.45285 31.9688 1.31773 31.9144 1.2181 31.8177C1.11847 31.721 1.0625 31.5899 1.0625 31.4531V1.54688C1.0625 1.41012 1.11847 1.27897 1.2181 1.18227C1.31773 1.08557 1.45285 1.03125 1.59375 1.03125H23.9062C24.0471 1.03125 24.1823 1.08557 24.2819 1.18227C24.3815 1.27897 24.4375 1.41012 24.4375 1.54688V6.70312C24.4375 6.83988 24.4935 6.97103 24.5931 7.06773C24.6927 7.16443 24.8279 7.21875 24.9688 7.21875C25.1096 7.21875 25.2448 7.16443 25.3444 7.06773C25.444 6.97103 25.5 6.83988 25.5 6.70312V1.54688C25.5 0.694031 24.7849 0 23.9062 0H1.59375C0.715062 0 0 0.694031 0 1.54688V31.4531C0 32.306 0.715062 33 1.59375 33Z" fill="black"/>
<path d="M19.125 10.8281V31.4531C19.125 32.306 19.8401 33 20.7188 33H32.4062C33.2849 33 34 32.306 34 31.4531V10.8281C34 9.97528 33.2849 9.28125 32.4062 9.28125H20.7188C19.8401 9.28125 19.125 9.97528 19.125 10.8281ZM32.9375 10.8281V31.4531C32.9375 31.5899 32.8815 31.721 32.7819 31.8177C32.6823 31.9144 32.5471 31.9688 32.4062 31.9688H20.7188C20.5779 31.9688 20.4427 31.9144 20.3431 31.8177C20.2435 31.721 20.1875 31.5899 20.1875 31.4531V10.8281C20.1875 10.6914 20.2435 10.5602 20.3431 10.4635C20.4427 10.3668 20.5779 10.3125 20.7188 10.3125H32.4062C32.5471 10.3125 32.6823 10.3668 32.7819 10.4635C32.8815 10.5602 32.9375 10.6914 32.9375 10.8281Z" fill="black"/>
<path d="M12.75 29.9062C13.3368 29.9062 13.8125 29.4445 13.8125 28.875C13.8125 28.3055 13.3368 27.8438 12.75 27.8438C12.1632 27.8438 11.6875 28.3055 11.6875 28.875C11.6875 29.4445 12.1632 29.9062 12.75 29.9062Z" fill="black"/>
<path d="M26.5625 29.9062C27.1493 29.9062 27.625 29.4445 27.625 28.875C27.625 28.3055 27.1493 27.8438 26.5625 27.8438C25.9757 27.8438 25.5 28.3055 25.5 28.875C25.5 29.4445 25.9757 29.9062 26.5625 29.9062Z" fill="black"/>
</g>
</g>
<defs>
<clipPath id="clip0_145_24">
<rect width="34" height="33" fill="white"/>
</clipPath>
<clipPath id="clip1_145_24">
<rect width="34" height="33" fill="white"/>
</clipPath>
</defs>
</svg>
