<svg width="33" height="33" viewBox="0 0 33 33" fill="none" xmlns="http://www.w3.org/2000/svg">
<g clip-path="url(#clip0_145_62)">
<path d="M3.21396 25.3958H29.786C31.9246 25.3958 33 24.3704 33 22.1824V7.85156C33 5.66354 31.9246 4.63818 29.786 4.63818H3.21396C1.07486 4.63759 0 5.66295 0 7.85156V22.1824C0 24.3704 1.07545 25.3958 3.21396 25.3958ZM3.25109 23.3828C2.40075 23.3828 2.01359 23.0327 2.01359 22.1571V7.88927C2.01359 7.00122 2.40075 6.65177 3.25109 6.65177H29.7489C30.6116 6.65177 30.9864 7.00122 30.9864 7.88927V22.1571C30.9864 23.0327 30.6116 23.3828 29.7489 23.3828H3.25109ZM25.5968 28.872C25.5968 28.222 25.0723 27.6969 24.4341 27.6969H8.54111C7.90291 27.6969 7.39023 28.2214 7.39023 28.872C7.39023 29.5225 7.90291 30.0476 8.54052 30.0476H24.4336C24.7435 30.0454 25.04 29.9205 25.2581 29.7001C25.4761 29.4798 25.5979 29.182 25.5968 28.872Z" fill="black"/>
</g>
<defs>
<clipPath id="clip0_145_62">
<rect width="33" height="33" fill="white"/>
</clipPath>
</defs>
</svg>
