<svg width="51" height="51" viewBox="0 0 51 51" fill="none" xmlns="http://www.w3.org/2000/svg">
<g clip-path="url(#clip0_145_17)">
<path d="M4.96704 39.2481H46.033C49.3379 39.2481 51 37.6635 51 34.282V12.1343C51 8.75286 49.3379 7.16821 46.033 7.16821H4.96704C1.66114 7.1673 0 8.75195 0 12.1343V34.282C0 37.6635 1.66205 39.2481 4.96704 39.2481ZM5.02441 36.1371C3.71025 36.1371 3.11191 35.5962 3.11191 34.2428V12.1926C3.11191 10.8202 3.71025 10.2801 5.02441 10.2801H45.9756C47.3089 10.2801 47.8881 10.8202 47.8881 12.1926V34.2428C47.8881 35.5962 47.3089 36.1371 45.9756 36.1371H5.02441ZM39.5587 44.6204C39.5587 43.6159 38.7482 42.8045 37.7619 42.8045H13.1999C12.2136 42.8045 11.4213 43.615 11.4213 44.6204C11.4213 45.6259 12.2136 46.4373 13.199 46.4373H37.7609C38.24 46.4339 38.6982 46.2408 39.0352 45.9003C39.3721 45.5597 39.5604 45.0995 39.5587 44.6204Z" fill="white"/>
</g>
<defs>
<clipPath id="clip0_145_17">
<rect width="51" height="51" fill="white"/>
</clipPath>
</defs>
</svg>
