<svg width="34" height="33" viewBox="0 0 34 33" fill="none" xmlns="http://www.w3.org/2000/svg">
<path d="M6 24.255V6.10133L2.94 2.36867C2.54133 1.87489 2.48933 1.35667 2.784 0.814C3.07867 0.271333 3.56067 0 4.23 0H24.434C25.082 0 25.6333 0.208389 26.088 0.625167C26.5413 1.04194 26.768 1.54672 26.768 2.1395V5.5H30.768C31.6573 5.5 32.418 5.79028 33.05 6.37083C33.6833 6.95017 34 7.64683 34 8.46083V17.6275C34 18.4427 33.6833 19.14 33.05 19.7193C32.418 20.2999 31.658 20.5902 30.77 20.5902H26.77V24.2568C26.77 25.0708 26.4533 25.7675 25.82 26.3468C25.188 26.9274 24.428 27.2177 23.54 27.2177H9.228C8.34 27.2177 7.58 26.928 6.948 26.3487C6.316 25.7681 6 25.0702 6 24.255ZM9.23 25.3843H23.538C23.898 25.3843 24.1933 25.2786 24.424 25.0672C24.6547 24.8557 24.77 24.5856 24.77 24.2568V1.83333H4.96L8 5.4505V24.2568C8 24.5856 8.11533 24.8557 8.346 25.0672C8.57667 25.2786 8.87133 25.3843 9.23 25.3843ZM26.77 18.7568H30.77C31.1287 18.7568 31.4233 18.6511 31.654 18.4397C31.8847 18.2282 32 17.9575 32 17.6275V8.46083C32 8.13206 31.8847 7.86194 31.654 7.6505C31.4233 7.43906 31.1287 7.33333 30.77 7.33333H26.77V18.755V18.7568ZM19.384 5.0765C18.872 5.0765 18.436 5.2415 18.076 5.5715C17.7173 5.90028 17.538 6.29933 17.538 6.76867V20.449C17.538 20.9183 17.718 21.318 18.078 21.648C18.4367 21.9768 18.872 22.1412 19.384 22.1412C19.8973 22.1412 20.3333 21.9762 20.692 21.6462C21.0507 21.3162 21.2307 20.9171 21.232 20.449V6.76867C21.232 6.29933 21.052 5.89967 20.692 5.56967C20.332 5.24089 19.896 5.0765 19.384 5.0765ZM1 33C0.716 33 0.478667 32.912 0.288 32.736C0.0960001 32.56 0 32.3424 0 32.0833C0 31.8242 0.0960001 31.6067 0.288 31.4307C0.48 31.2547 0.717333 31.1667 1 31.1667H31C31.284 31.1667 31.5213 31.2547 31.712 31.4307C31.9027 31.6067 31.9987 31.8242 32 32.0833C32 32.3424 31.904 32.56 31.712 32.736C31.5213 32.9108 31.284 32.9982 31 32.9982L1 33Z" fill="black"/>
</svg>
